<?xml version="1.0" standalone="no"?>
<!DOCTYPE svg PUBLIC "-//W3C//DTD SVG 20010904//EN"
 "http://www.w3.org/TR/2001/REC-SVG-20010904/DTD/svg10.dtd">
<svg version="1.0" xmlns="http://www.w3.org/2000/svg"
 width="344.000000pt" height="344.000000pt" viewBox="0 0 344.000000 344.000000"
 preserveAspectRatio="xMidYMid meet">
<metadata>
Created by potrace 1.11, written by Peter Selinger 2001-2013
</metadata>
<g transform="translate(0.000000,344.000000) scale(0.100000,-0.100000)"
fill="#000000" stroke="none">
<path d="M1530 3420 c-179 -37 -310 -110 -456 -255 -111 -110 -142 -151 -203
-271 -62 -121 -92 -251 -97 -414 -4 -153 8 -230 56 -370 l31 -91 -26 -67 c-14
-37 -34 -107 -45 -157 -17 -84 -18 -150 -19 -937 l-1 -848 37 -1 c72 -1 168
-1 186 0 16 1 17 30 17 470 l0 469 48 -48 c212 -213 507 -314 801 -275 280 37
527 209 689 478 143 239 170 556 71 842 l-31 92 26 66 c43 108 59 193 62 332
3 133 -10 230 -42 330 -92 280 -339 535 -605 624 -154 51 -347 63 -499 31z
m371 -245 c148 -42 299 -146 376 -258 15 -23 31 -44 34 -47 20 -16 80 -158 99
-235 19 -76 22 -109 18 -212 -3 -68 -8 -126 -11 -130 -4 -3 -28 14 -54 38
-120 112 -247 183 -393 221 -110 28 -347 30 -453 5 -149 -37 -303 -119 -419
-226 l-57 -52 -8 38 c-14 68 -8 263 10 333 67 250 270 459 507 521 93 25 273
27 351 4z m29 -874 c113 -36 244 -127 325 -226 36 -43 37 -46 22 -69 -47 -71
-165 -171 -253 -215 -172 -84 -429 -84 -596 0 -89 45 -210 147 -254 214 -20
31 -12 45 73 129 98 99 195 154 318 182 87 20 281 12 365 -15z m495 -596 c27
-206 -21 -393 -143 -554 -100 -131 -233 -223 -378 -262 -119 -32 -282 -30
-389 5 -319 102 -523 419 -493 766 10 117 11 118 59 73 193 -178 397 -254 669
-248 144 3 151 4 256 36 121 37 260 121 354 213 50 49 54 47 65 -29z"/>
</g>
</svg>
